<?xml version="1.0" standalone="no"?>
<!DOCTYPE svg PUBLIC "-//W3C//DTD SVG 20010904//EN"
 "http://www.w3.org/TR/2001/REC-SVG-20010904/DTD/svg10.dtd">
<svg version="1.0" xmlns="http://www.w3.org/2000/svg"
 width="256.000000pt" height="256.000000pt" viewBox="0 0 256.000000 256.000000"
 preserveAspectRatio="xMidYMid meet">
<metadata>
Created by potrace 1.11, written by Peter Selinger 2001-2013
</metadata>
<g transform="translate(0.000000,256.000000) scale(0.100000,-0.100000)"
fill="#000000" stroke="none">
<path d="M905 2480 c-73 -23 -139 -77 -164 -133 -17 -40 -18 -79 -18 -658 l0
-617 61 33 c192 104 320 97 593 -35 139 -68 267 -117 323 -126 173 -27 353 3
545 91 69 31 75 36 76 64 0 17 0 279 0 581 0 303 0 566 0 586 -1 28 -4 34 -13
27 -28 -22 -219 -83 -313 -101 -72 -14 -210 -5 -284 17 -91 28 -274 118 -338
167 -142 108 -326 149 -468 104z"/>
<path d="M419 2438 l-24 -33 -1 -1120 c0 -616 3 -1133 8 -1150 13 -49 48 -73
104 -70 66 2 80 10 97 53 13 32 15 199 14 1160 l0 1123 -21 32 c-20 30 -26 32
-88 35 -65 3 -67 2 -89 -30z"/>
</g>
</svg>
